PathFileType	4	(X/Y/Z)	c:\Git\powerlifing_model_clean\simulations\HC835B\Session1\HC835B_OGW_0006\marker_experimental.trc
DataRate	CameraRate	NumFrames	NumMarkers	Units	OrigDataRate	OrigDataStartFrame	OrigNumFrames
240.000000	240.000000	4	38	mm	240.000000	378	433
Frame#	Time	RPSI			LPSI			RASI			LASI			RTH1			RTH2			RTH3			RTH4			RSK1			RSK2			RSK3			RSK4			RCAL1			RCAL2			RCAL3			RST			RPT			RTN			RFMB			RSMB			RVMB			RFMH			RSMH			RVMH			RPM			LTH1			LTH2			LTH3			LTH4			LSK1			LSK2			LSK3			LSK4			LCAL1			LCAL2			LCAL3			LFMH			LVMH			
		X1	Y1	Z1	X2	Y2	Z2	X3	Y3	Z3	X4	Y4	Z4	X5	Y5	Z5	X6	Y6	Z6	X7	Y7	Z7	X8	Y8	Z8	X9	Y9	Z9	X10	Y10	Z10	X11	Y11	Z11	X12	Y12	Z12	X13	Y13	Z13	X14	Y14	Z14	X15	Y15	Z15	X16	Y16	Z16	X17	Y17	Z17	X18	Y18	Z18	X19	Y19	Z19	X20	Y20	Z20	X21	Y21	Z21	X22	Y22	Z22	X23	Y23	Z23	X24	Y24	Z24	X25	Y25	Z25	X26	Y26	Z26	X27	Y27	Z27	X28	Y28	Z28	X29	Y29	Z29	X30	Y30	Z30	X31	Y31	Z31	X32	Y32	Z32	X33	Y33	Z33	X34	Y34	Z34	X35	Y35	Z35	X36	Y36	Z36	X37	Y37	Z37	X38	Y38	Z38	

379	1.575	428.6639709472657	1120.456298828125	-67.17687988281251	535.1947021484376	1106.643310546875	-61.28234481811525	344.0230712890626	1072.02978515625	134.0457763671875	589.8204345703126	1060.267211914063	150.6424102783203	292.0187377929688	811.9695434570315	0.2647770643234253	303.4858703613282	786.6652832031252	54.67416763305665	307.5363464355469	728.5366821289064	3.771884441375733	329.2218017578126	705.9394531250001	53.81551361083986	378.2583007812501	312.0555725097657	-211.4479522705079	371.9611816406251	280.0965270996094	-159.0374908447266	383.7796020507813	253.9204254150391	-212.533187866211	391.6035461425782	223.8723602294922	-160.5382385253907	455.2521972656251	113.6271743774414	-306.0690917968751	487.5895080566407	74.49343872070314	-297.5851135253907	424.2155761718751	76.90431976318361	-309.5778808593751	492.6106872558595	81.95558166503908	-227.3043060302735	392.8058166503907	82.60225677490236	-253.0505065917969	471.8696289062501	96.0588073730469	-171.9163360595703	462.4778137207032	78.79618072509767	-141.5789337158203	413.0350646972657	101.4209289550782	-138.6182250976563	376.2591857910157	53.29919433593751	-214.3311614990235	455.2122192382814	50.96659088134767	-91.08160400390626	400.2321777343751	62.29233551025392	-83.79501342773439	347.3368530273438	41.96866607666016	-141.3372192382813	404.2321166992189	44.33650588989259	-24.32040405273438	664.8872680664064	785.4685058593752	141.8897705078125	655.7174682617189	795.8070068359377	200.8076934814454	656.7940673828126	715.4156494140626	190.5429382324219	634.4901123046876	726.5426025390626	246.6965789794922	625.6177978515626	296.3906555175782	332.6099548339844	636.9786376953126	305.6858520507813	384.2232666015626	626.3599243164064	257.1689758300782	373.5756835937501	622.1976928710939	271.1822814941407	428.187957763672	564.8265380859376	102.5967559814453	408.3722534179689	592.8237915039064	67.34605407714845	423.164764404297	534.1938476562501	75.25905609130861	430.2862548828126	559.7882690429689	182.0074310302735	621.3883666992189	655.9174194335939	129.1419677734375	595.8276367187501	
380	1.579166666666667	428.8518371582032	1118.849853515625	-60.19704055786134	535.4965820312501	1105.217163085938	-54.52184295654298	343.8952026367188	1070.8671875	140.9281463623047	589.5962524414064	1059.038330078125	157.6143035888672	291.8904418945313	811.242614746094	5.885756015777589	302.9642028808594	785.7789306640627	60.34436798095705	307.2570495605469	727.8323974609376	9.056960105895998	328.6033020019532	704.6782226562501	59.06633758544923	378.0531005859376	312.7196960449219	-209.0406646728516	371.7543945312501	280.1333923339844	-156.9066619873047	383.4494323730469	254.7415618896485	-210.538558959961	391.3153076171876	224.4242248535157	-158.8170928955078	454.9929504394532	115.2428131103516	-305.6677246093751	487.3079223632814	75.88711547851564	-297.2965393066407	423.871551513672	78.12825012207033	-309.2089538574219	492.3641967773439	82.9704055786133	-226.9241485595704	392.461395263672	83.32590484619142	-252.6744079589844	471.6040039062501	96.59590148925784	-171.4713897705078	462.2408142089845	79.10552215576173	-141.2567443847657	412.7613220214845	101.579086303711	-138.1424255371094	376.0744628906251	53.79573059082033	-214.1008911132813	455.0896606445314	50.96298217773439	-90.9613494873047	400.0358886718751	62.07292556762697	-83.62139892578126	347.2376403808594	41.94174194335938	-141.2838287353516	404.1209716796876	44.12884521484376	-24.20451545715333	665.2174682617189	783.5481567382815	148.4934234619141	655.6984863281251	794.2825927734377	207.3116912841797	656.4852905273439	713.7816162109376	197.4679260253907	634.1756591796876	725.2392578125001	253.5050201416016	624.5371093750001	295.0051879882813	341.0467529296876	635.9346313476564	304.8768920898438	392.5296020507814	625.1712646484376	256.3255615234376	382.4365539550782	621.1484985351564	270.9585266113282	436.9239807128907	562.7928466796876	101.2032012939453	419.8441162109376	590.3036499023439	66.22963714599611	435.2361755371095	531.7951049804689	75.26087951660158	442.2229919433595	559.1196289062501	185.8135375976563	630.9653320312501	654.4272460937501	130.8456268310547	606.5222778320314	
381	1.583333333333333	429.1158142089845	1117.428588867188	-53.2040252685547	535.1796264648439	1103.849487304688	-47.50755310058594	343.6840209960938	1069.554809570313	147.9287872314453	589.3427124023439	1057.833618164063	164.5047302246094	291.6971130371094	810.4385375976565	11.5963306427002	302.5996398925782	784.708679199219	65.90732574462892	307.0022583007813	726.9063110351564	14.40518760681153	328.0269775390626	703.6473999023439	64.49441528320314	377.7442321777344	313.3491516113282	-206.5532379150391	371.4807739257813	280.3668212890626	-154.7648315429688	383.1132812500001	255.3327178955079	-208.5191345214844	390.9687805175782	224.2415771484376	-157.2317352294922	455.5050048828126	116.090560913086	-304.9542541503907	486.952117919922	77.38681793212892	-296.9598388671876	423.6762695312501	79.70793914794923	-308.9091491699219	492.0835571289064	84.0559539794922	-226.5205993652344	392.1113891601564	84.21468353271486	-252.1461791992188	471.2760620117189	97.19391632080081	-170.9788818359375	461.9561767578126	79.46697998046876	-140.9140930175782	412.3990478515626	101.7130279541016	-137.6320037841797	375.8215942382813	54.30794143676759	-213.8486328125001	454.9683532714845	50.99732589721681	-90.8203811645508	399.8507385253907	61.84112930297853	-83.40869140625001	347.1239318847657	41.89768218994141	-141.2480773925782	404.0169677734376	43.92670440673829	-24.11618423461915	665.4860839843751	782.246032714844	155.7140350341797	655.6678466796876	793.353454589844	214.4037170410157	655.9293212890626	712.8122558593751	205.032455444336	633.5678100585939	724.7621459960939	260.9237976074219	623.3173217773439	293.6359863281251	348.7772827148438	634.8455200195314	303.7919006347657	400.1964111328126	623.8703613281251	255.2435760498047	390.4580993652345	620.1135253906251	270.2230529785157	444.8646240234376	560.8713989257814	100.0727615356446	429.8214111328126	587.4505615234376	64.52122497558595	446.0527954101564	529.2937011718751	74.97950744628908	452.6590270996095	558.4357910156251	188.9716491699219	639.2911376953126	652.6748046875001	131.42041015625	616.1146240234376	
382	1.5875	429.2037353515626	1115.930053710938	-46.20949172973634	535.8697509765626	1102.310302734375	-40.89314270019532	343.5960083007813	1068.375732421875	154.9048919677735	589.0425415039064	1056.698852539063	171.430908203125	291.6690368652344	809.583435058594	17.36071014404297	302.1754455566407	783.7324218750002	71.77523803710939	306.6576232910157	726.0618286132814	20.04671478271485	327.4536437988282	702.6587524414064	70.12944793701173	377.4240112304688	314.0391540527344	-203.8937377929688	371.1108703613282	280.7688903808594	-152.2710876464844	382.9255371093751	256.1856079101563	-206.6569824218751	390.5687561035157	224.7633819580079	-155.3883514404297	455.1606750488282	117.8035888671875	-304.2488403320313	486.5635986328126	79.03600311279298	-296.5606079101563	423.2426147460939	81.16157531738283	-308.4354248046876	491.6992187500001	85.20867919921876	-226.131820678711	391.6925048828126	85.34633636474611	-251.6633453369141	470.9500427246095	97.88620758056643	-170.4650115966797	461.6988830566407	79.8165740966797	-140.5453186035157	412.0811767578126	101.8428039550782	-137.0900115966797	375.5852050781251	54.79880142211915	-213.6296997070313	454.8467102050782	51.01767349243165	-90.7129592895508	399.6035461425782	61.60496139526369	-83.19889068603517	346.9799804687501	41.8384132385254	-141.1588745117188	403.9443359375001	43.7169418334961	-24.03351783752442	665.4183959960939	781.3818359375002	163.3442535400391	655.5700683593751	792.954284667969	221.9664916992188	655.3773803710939	712.3381347656251	213.1259460449219	632.8041992187501	724.8258056640626	268.8549804687501	621.8758544921876	292.2037963867188	355.9448547363282	633.6683959960939	302.4500122070313	407.2481079101564	622.5137329101564	254.0079956054688	397.6496887207032	619.1702270507814	269.0498962402344	452.1016235351564	558.6993408203126	98.01819610595706	438.5102539062501	584.9291381835939	62.83078002929689	455.3889770507814	526.6501464843751	74.54642486572267	461.7007141113282	557.9645385742189	190.9230041503907	646.2772216796876	650.7955322265626	130.94580078125	624.5807495117189	
